<?xml version="1.0" encoding="UTF-8" standalone="no"?>
<!-- Created with Inkscape (http://www.inkscape.org/) -->

<svg
   xmlns:dc="http://purl.org/dc/elements/1.1/"
   xmlns:cc="http://creativecommons.org/ns#"
   xmlns:rdf="http://www.w3.org/1999/02/22-rdf-syntax-ns#"
   xmlns:svg="http://www.w3.org/2000/svg"
   xmlns="http://www.w3.org/2000/svg"
   xmlns:xlink="http://www.w3.org/1999/xlink"
   xmlns:sodipodi="http://sodipodi.sourceforge.net/DTD/sodipodi-0.dtd"
   xmlns:inkscape="http://www.inkscape.org/namespaces/inkscape"
   width="504"
   height="222"
   id="svg2"
   version="1.1"
   inkscape:version="0.48.4 r9939"
   sodipodi:docname="hybrid-logo-2.svg">
  <defs
     id="defs4">
    <linearGradient
       id="linearGradient4798">
      <stop
         style="stop-color:#acaca4;stop-opacity:1;"
         offset="0"
         id="stop4800" />
      <stop
         id="stop4802"
         offset="0.32201263"
         style="stop-color:#d3e4d9;stop-opacity:1;" />
      <stop
         id="stop4804"
         offset="0.44464698"
         style="stop-color:#81928c;stop-opacity:1;" />
      <stop
         style="stop-color:#e0ebeb;stop-opacity:1;"
         offset="0.51819223"
         id="stop4806" />
      <stop
         id="stop4808"
         offset="0.65894443"
         style="stop-color:#a6b2b6;stop-opacity:1;" />
      <stop
         style="stop-color:#d4e0ea;stop-opacity:1;"
         offset="1"
         id="stop4810" />
    </linearGradient>
    <linearGradient
       id="linearGradient4711">
      <stop
         id="stop4713"
         offset="0"
         style="stop-color:#000000;stop-opacity:1;" />
      <stop
         id="stop4715"
         offset="1"
         style="stop-color:#000000;stop-opacity:1;" />
    </linearGradient>
    <linearGradient
       inkscape:collect="always"
       id="linearGradient4589">
      <stop
         style="stop-color:#000000;stop-opacity:1;"
         offset="0"
         id="stop4591" />
      <stop
         style="stop-color:#000000;stop-opacity:0;"
         offset="1"
         id="stop4593" />
    </linearGradient>
    <linearGradient
       id="linearGradient4581">
      <stop
         style="stop-color:#000000;stop-opacity:1;"
         offset="0"
         id="stop4583" />
      <stop
         style="stop-color:#000000;stop-opacity:1;"
         offset="1"
         id="stop4585" />
    </linearGradient>
    <linearGradient
       id="linearGradient3844">
      <stop
         id="stop3846"
         offset="0"
         style="stop-color:#acaca4;stop-opacity:1;" />
      <stop
         style="stop-color:#d3e4d9;stop-opacity:1;"
         offset="0.3385455"
         id="stop3848" />
      <stop
         style="stop-color:#81928c;stop-opacity:1;"
         offset="0.40036631"
         id="stop3850" />
      <stop
         id="stop3852"
         offset="0.6444366"
         style="stop-color:#e0ebeb;stop-opacity:1;" />
      <stop
         style="stop-color:#a6b2b6;stop-opacity:1;"
         offset="0.65659016"
         id="stop3854" />
      <stop
         id="stop3856"
         offset="1"
         style="stop-color:#d4e0ea;stop-opacity:1;" />
    </linearGradient>
    <linearGradient
       id="linearGradient3818">
      <stop
         style="stop-color:#acaca4;stop-opacity:1;"
         offset="0"
         id="stop3820" />
      <stop
         id="stop3842"
         offset="0.2453669"
         style="stop-color:#bac0bc;stop-opacity:1;" />
      <stop
         id="stop3834"
         offset="0.4907338"
         style="stop-color:#899490;stop-opacity:1;" />
      <stop
         style="stop-color:#cbdada;stop-opacity:1;"
         offset="0.53504997"
         id="stop3836" />
      <stop
         id="stop3840"
         offset="0.76752496"
         style="stop-color:#a6b2b6;stop-opacity:1;" />
      <stop
         style="stop-color:#828b92;stop-opacity:1;"
         offset="1"
         id="stop3822" />
    </linearGradient>
    <linearGradient
       id="linearGradient3970">
      <stop
         style="stop-color:#4cffa3;stop-opacity:1;"
         offset="0"
         id="stop3972" />
      <stop
         id="stop3980"
         offset="0.5"
         style="stop-color:#006dfd;stop-opacity:1;" />
      <stop
         style="stop-color:#7019ff;stop-opacity:1;"
         offset="1"
         id="stop3974" />
    </linearGradient>
    <linearGradient
       id="linearGradient3927">
      <stop
         style="stop-color:#9fffc4;stop-opacity:1;"
         offset="0"
         id="stop3929" />
      <stop
         style="stop-color:#005321;stop-opacity:1;"
         offset="1"
         id="stop3931" />
    </linearGradient>
    <inkscape:perspective
       sodipodi:type="inkscape:persp3d"
       inkscape:vp_x="-2.8571429 : 560.4668 : 1"
       inkscape:vp_y="0 : 1000 : 0"
       inkscape:vp_z="741.23734 : 560.4668 : 1"
       inkscape:persp3d-origin="369.1901 : 385.0731 : 1"
       id="perspective2993" />
    <linearGradient
       inkscape:collect="always"
       xlink:href="#linearGradient3927"
       id="linearGradient3933"
       x1="416.83536"
       y1="927.65222"
       x2="516.18652"
       y2="927.65222"
       gradientUnits="userSpaceOnUse" />
    <linearGradient
       inkscape:collect="always"
       xlink:href="#linearGradient3927"
       id="linearGradient3935"
       x1="400.96179"
       y1="864.18793"
       x2="418.51334"
       y2="864.18793"
       gradientUnits="userSpaceOnUse" />
    <linearGradient
       inkscape:collect="always"
       xlink:href="#linearGradient3927"
       id="linearGradient3937"
       x1="312.02493"
       y1="892.94763"
       x2="380.52179"
       y2="892.94763"
       gradientUnits="userSpaceOnUse" />
    <linearGradient
       inkscape:collect="always"
       xlink:href="#linearGradient3927"
       id="linearGradient3939"
       x1="229.07211"
       y1="912.52368"
       x2="301.10379"
       y2="912.52368"
       gradientUnits="userSpaceOnUse" />
    <linearGradient
       inkscape:collect="always"
       xlink:href="#linearGradient3927"
       id="linearGradient3941"
       x1="180.71875"
       y1="525.40179"
       x2="203.21875"
       y2="525.40179"
       gradientUnits="userSpaceOnUse" />
    <linearGradient
       inkscape:collect="always"
       xlink:href="#linearGradient3927"
       id="linearGradient3943"
       x1="112.84375"
       y1="529.49554"
       x2="132.84375"
       y2="529.49554"
       gradientUnits="userSpaceOnUse" />
    <radialGradient
       inkscape:collect="always"
       xlink:href="#linearGradient3970"
       id="radialGradient3978"
       cx="268.12769"
       cy="1093.7947"
       fx="268.12769"
       fy="1093.7947"
       r="252.50179"
       gradientTransform="matrix(3.0374924,-0.01956704,0.00544578,0.69962193,-549.96761,243.32814)"
       gradientUnits="userSpaceOnUse" />
    <linearGradient
       inkscape:collect="always"
       xlink:href="#linearGradient3927"
       id="linearGradient3982"
       gradientUnits="userSpaceOnUse"
       x1="517.63702"
       y1="798.23547"
       x2="518.10791"
       y2="1005.2682" />
    <linearGradient
       inkscape:collect="always"
       xlink:href="#linearGradient3927-2"
       id="linearGradient3982-5"
       gradientUnits="userSpaceOnUse"
       x1="416.83536"
       y1="927.65222"
       x2="516.18652"
       y2="927.65222" />
    <linearGradient
       id="linearGradient3927-2">
      <stop
         style="stop-color:#9fffc4;stop-opacity:1;"
         offset="0"
         id="stop3929-7" />
      <stop
         style="stop-color:#005321;stop-opacity:1;"
         offset="1"
         id="stop3931-6" />
    </linearGradient>
    <radialGradient
       inkscape:collect="always"
       xlink:href="#linearGradient3970-4"
       id="radialGradient3978-1"
       cx="268.12769"
       cy="1093.7947"
       fx="268.12769"
       fy="1093.7947"
       r="252.50179"
       gradientTransform="matrix(3.0374924,-0.01956704,0.00544578,0.69962193,-549.96761,243.32814)"
       gradientUnits="userSpaceOnUse" />
    <linearGradient
       id="linearGradient3970-4">
      <stop
         style="stop-color:#4cffa3;stop-opacity:1;"
         offset="0"
         id="stop3972-2" />
      <stop
         id="stop3980-3"
         offset="0.5"
         style="stop-color:#006dfd;stop-opacity:1;" />
      <stop
         style="stop-color:#7019ff;stop-opacity:1;"
         offset="1"
         id="stop3974-2" />
    </linearGradient>
    <radialGradient
       r="252.50179"
       fy="1093.7947"
       fx="268.12769"
       cy="1093.7947"
       cx="268.12769"
       gradientTransform="matrix(3.0374924,-0.01956704,0.00544578,0.69962193,-549.96761,243.32814)"
       gradientUnits="userSpaceOnUse"
       id="radialGradient4005"
       xlink:href="#linearGradient3970-4"
       inkscape:collect="always" />
    <linearGradient
       id="linearGradient3927-8">
      <stop
         style="stop-color:#9fffc4;stop-opacity:1;"
         offset="0"
         id="stop3929-5" />
      <stop
         style="stop-color:#005321;stop-opacity:1;"
         offset="1"
         id="stop3931-7" />
    </linearGradient>
    <radialGradient
       inkscape:collect="always"
       xlink:href="#linearGradient3970-1"
       id="radialGradient3978-6"
       cx="268.12769"
       cy="1093.7947"
       fx="268.12769"
       fy="1093.7947"
       r="252.50179"
       gradientTransform="matrix(3.0374924,-0.01956704,0.00544578,0.69962193,-549.96761,243.32814)"
       gradientUnits="userSpaceOnUse" />
    <linearGradient
       id="linearGradient3970-1">
      <stop
         style="stop-color:#4cffa3;stop-opacity:1;"
         offset="0"
         id="stop3972-8" />
      <stop
         id="stop3980-9"
         offset="0.5"
         style="stop-color:#006dfd;stop-opacity:1;" />
      <stop
         style="stop-color:#7019ff;stop-opacity:1;"
         offset="1"
         id="stop3974-27" />
    </linearGradient>
    <linearGradient
       inkscape:collect="always"
       xlink:href="#linearGradient3927-1"
       id="linearGradient3982-3"
       gradientUnits="userSpaceOnUse"
       x1="517.63702"
       y1="798.23547"
       x2="518.10791"
       y2="1005.2682" />
    <linearGradient
       id="linearGradient3927-1">
      <stop
         style="stop-color:#9fffc4;stop-opacity:1;"
         offset="0"
         id="stop3929-6" />
      <stop
         style="stop-color:#005321;stop-opacity:1;"
         offset="1"
         id="stop3931-8" />
    </linearGradient>
    <linearGradient
       inkscape:collect="always"
       xlink:href="#linearGradient3818-2"
       id="linearGradient3832-8"
       x1="518.10791"
       y1="1005.2682"
       x2="517.63702"
       y2="798.23547"
       gradientUnits="userSpaceOnUse" />
    <linearGradient
       id="linearGradient3818-2">
      <stop
         style="stop-color:#acaca4;stop-opacity:1;"
         offset="0"
         id="stop3820-7" />
      <stop
         id="stop3842-7"
         offset="0.2453669"
         style="stop-color:#bac0bc;stop-opacity:1;" />
      <stop
         id="stop3834-1"
         offset="0.4907338"
         style="stop-color:#899490;stop-opacity:1;" />
      <stop
         style="stop-color:#cbdada;stop-opacity:1;"
         offset="0.53504997"
         id="stop3836-2" />
      <stop
         id="stop3840-6"
         offset="0.76752496"
         style="stop-color:#a6b2b6;stop-opacity:1;" />
      <stop
         style="stop-color:#828b92;stop-opacity:1;"
         offset="1"
         id="stop3822-0" />
    </linearGradient>
    <radialGradient
       inkscape:collect="always"
       xlink:href="#linearGradient3970-45"
       id="radialGradient3978-2"
       cx="268.12769"
       cy="1093.7947"
       fx="268.12769"
       fy="1093.7947"
       r="252.50179"
       gradientTransform="matrix(3.0374924,-0.01956704,0.00544578,0.69962193,-549.96761,243.32814)"
       gradientUnits="userSpaceOnUse" />
    <linearGradient
       id="linearGradient3970-45">
      <stop
         style="stop-color:#4cffa3;stop-opacity:1;"
         offset="0"
         id="stop3972-88" />
      <stop
         id="stop3980-1"
         offset="0.5"
         style="stop-color:#006dfd;stop-opacity:1;" />
      <stop
         style="stop-color:#7019ff;stop-opacity:1;"
         offset="1"
         id="stop3974-21" />
    </linearGradient>
    <linearGradient
       inkscape:collect="always"
       xlink:href="#linearGradient3844-9"
       id="linearGradient3838-4"
       gradientUnits="userSpaceOnUse"
       x1="518.10791"
       y1="1006.2253"
       x2="518.15155"
       y2="799.67126" />
    <linearGradient
       id="linearGradient3844-9">
      <stop
         id="stop3846-8"
         offset="0"
         style="stop-color:#acaca4;stop-opacity:1;" />
      <stop
         style="stop-color:#d3e4d9;stop-opacity:1;"
         offset="0.3385455"
         id="stop3848-2" />
      <stop
         style="stop-color:#81928c;stop-opacity:1;"
         offset="0.40036631"
         id="stop3850-4" />
      <stop
         id="stop3852-5"
         offset="0.6444366"
         style="stop-color:#e0ebeb;stop-opacity:1;" />
      <stop
         style="stop-color:#a6b2b6;stop-opacity:1;"
         offset="0.65659016"
         id="stop3854-2" />
      <stop
         id="stop3856-9"
         offset="1"
         style="stop-color:#d4e0ea;stop-opacity:1;" />
    </linearGradient>
    <linearGradient
       id="linearGradient3927-6">
      <stop
         style="stop-color:#9fffc4;stop-opacity:1;"
         offset="0"
         id="stop3929-9" />
      <stop
         style="stop-color:#005321;stop-opacity:1;"
         offset="1"
         id="stop3931-86" />
    </linearGradient>
    <linearGradient
       inkscape:collect="always"
       xlink:href="#linearGradient3818-23"
       id="linearGradient3832-6"
       x1="514.5061"
       y1="996.65356"
       x2="516.09338"
       y2="823.12219"
       gradientUnits="userSpaceOnUse" />
    <linearGradient
       id="linearGradient3818-23">
      <stop
         style="stop-color:#48483f;stop-opacity:1;"
         offset="0"
         id="stop3820-8" />
      <stop
         id="stop3842-2"
         offset="0.2453669"
         style="stop-color:#b0b0b0;stop-opacity:1;" />
      <stop
         id="stop3834-6"
         offset="0.4907338"
         style="stop-color:#535353;stop-opacity:1;" />
      <stop
         style="stop-color:#898989;stop-opacity:1;"
         offset="0.53504997"
         id="stop3836-27" />
      <stop
         id="stop3840-5"
         offset="0.76752496"
         style="stop-color:#b9b9b9;stop-opacity:1;" />
      <stop
         style="stop-color:#515457;stop-opacity:1;"
         offset="1"
         id="stop3822-7" />
    </linearGradient>
    <radialGradient
       inkscape:collect="always"
       xlink:href="#linearGradient3970-2"
       id="radialGradient3978-9"
       cx="268.12769"
       cy="1093.7947"
       fx="268.12769"
       fy="1093.7947"
       r="252.50179"
       gradientTransform="matrix(3.0374924,-0.01956704,0.00544578,0.69962193,-549.96761,243.32814)"
       gradientUnits="userSpaceOnUse" />
    <linearGradient
       id="linearGradient3970-2">
      <stop
         style="stop-color:#4cffa3;stop-opacity:1;"
         offset="0"
         id="stop3972-82" />
      <stop
         id="stop3980-0"
         offset="0.5"
         style="stop-color:#006dfd;stop-opacity:1;" />
      <stop
         style="stop-color:#7019ff;stop-opacity:1;"
         offset="1"
         id="stop3974-5" />
    </linearGradient>
    <linearGradient
       inkscape:collect="always"
       xlink:href="#linearGradient3844-2"
       id="linearGradient3838-5"
       gradientUnits="userSpaceOnUse"
       x1="518.10791"
       y1="1006.2253"
       x2="518.15155"
       y2="799.67126" />
    <linearGradient
       id="linearGradient3844-2">
      <stop
         id="stop3846-7"
         offset="0"
         style="stop-color:#acaca4;stop-opacity:1;" />
      <stop
         style="stop-color:#d3e4d9;stop-opacity:1;"
         offset="0.3385455"
         id="stop3848-6" />
      <stop
         style="stop-color:#81928c;stop-opacity:1;"
         offset="0.40036631"
         id="stop3850-7" />
      <stop
         id="stop3852-8"
         offset="0.6444366"
         style="stop-color:#e0ebeb;stop-opacity:1;" />
      <stop
         style="stop-color:#a6b2b6;stop-opacity:1;"
         offset="0.65659016"
         id="stop3854-7" />
      <stop
         id="stop3856-8"
         offset="1"
         style="stop-color:#d4e0ea;stop-opacity:1;" />
    </linearGradient>
    <linearGradient
       inkscape:collect="always"
       xlink:href="#linearGradient3818-23"
       id="linearGradient4587"
       x1="8.7017393"
       y1="889.16479"
       x2="517.63934"
       y2="889.16479"
       gradientUnits="userSpaceOnUse" />
    <linearGradient
       inkscape:collect="always"
       xlink:href="#linearGradient4589"
       id="linearGradient4595"
       x1="18.86367"
       y1="783.8775"
       x2="16.80551"
       y2="991.10742"
       gradientUnits="userSpaceOnUse" />
    <linearGradient
       id="linearGradient3927-86">
      <stop
         style="stop-color:#9fffc4;stop-opacity:1;"
         offset="0"
         id="stop3929-4" />
      <stop
         style="stop-color:#005321;stop-opacity:1;"
         offset="1"
         id="stop3931-68" />
    </linearGradient>
    <linearGradient
       inkscape:collect="always"
       xlink:href="#linearGradient3844-1"
       id="linearGradient3832-9"
       x1="518.10791"
       y1="1005.2682"
       x2="517.63702"
       y2="798.23547"
       gradientUnits="userSpaceOnUse" />
    <linearGradient
       id="linearGradient3818-8">
      <stop
         style="stop-color:#43433d;stop-opacity:1;"
         offset="0"
         id="stop3820-3" />
      <stop
         id="stop3842-5"
         offset="0.2453669"
         style="stop-color:#bac0bc;stop-opacity:1;" />
      <stop
         id="stop3834-5"
         offset="0.4907338"
         style="stop-color:#697470;stop-opacity:1;" />
      <stop
         style="stop-color:#739c9c;stop-opacity:1;"
         offset="0.53504997"
         id="stop3836-1" />
      <stop
         id="stop3840-55"
         offset="0.76752496"
         style="stop-color:#a6b2b6;stop-opacity:1;" />
      <stop
         style="stop-color:#4b5156;stop-opacity:1;"
         offset="1"
         id="stop3822-8" />
    </linearGradient>
    <radialGradient
       inkscape:collect="always"
       xlink:href="#linearGradient3970-0"
       id="radialGradient3978-4"
       cx="268.12769"
       cy="1093.7947"
       fx="268.12769"
       fy="1093.7947"
       r="252.50179"
       gradientTransform="matrix(3.0374924,-0.01956704,0.00544578,0.69962193,-549.96761,243.32814)"
       gradientUnits="userSpaceOnUse" />
    <linearGradient
       id="linearGradient3970-0">
      <stop
         style="stop-color:#4cffa3;stop-opacity:1;"
         offset="0"
         id="stop3972-5" />
      <stop
         id="stop3980-4"
         offset="0.5"
         style="stop-color:#006dfd;stop-opacity:1;" />
      <stop
         style="stop-color:#7019ff;stop-opacity:1;"
         offset="1"
         id="stop3974-7" />
    </linearGradient>
    <linearGradient
       inkscape:collect="always"
       xlink:href="#linearGradient3844-1"
       id="linearGradient3838-2"
       gradientUnits="userSpaceOnUse"
       x1="518.10791"
       y1="1006.2253"
       x2="518.15155"
       y2="799.67126" />
    <linearGradient
       id="linearGradient3844-1">
      <stop
         id="stop3846-4"
         offset="0"
         style="stop-color:#acaca4;stop-opacity:1;" />
      <stop
         style="stop-color:#d3e4d9;stop-opacity:1;"
         offset="0.3385455"
         id="stop3848-9" />
      <stop
         style="stop-color:#81928c;stop-opacity:1;"
         offset="0.40036631"
         id="stop3850-9" />
      <stop
         id="stop3852-0"
         offset="0.6444366"
         style="stop-color:#e0ebeb;stop-opacity:1;" />
      <stop
         style="stop-color:#a6b2b6;stop-opacity:1;"
         offset="0.65659016"
         id="stop3854-3" />
      <stop
         id="stop3856-0"
         offset="1"
         style="stop-color:#d4e0ea;stop-opacity:1;" />
    </linearGradient>
    <linearGradient
       inkscape:collect="always"
       xlink:href="#linearGradient3844"
       id="linearGradient4948"
       x1="165.86934"
       y1="851.65344"
       x2="166.35295"
       y2="1054.0256"
       gradientUnits="userSpaceOnUse" />
  </defs>
  <sodipodi:namedview
     id="base"
     pagecolor="#ffffff"
     bordercolor="#666666"
     borderopacity="1.0"
     inkscape:pageopacity="0.0"
     inkscape:pageshadow="2"
     inkscape:zoom="1.979899"
     inkscape:cx="88.957854"
     inkscape:cy="115.54973"
     inkscape:document-units="px"
     inkscape:current-layer="layer1"
     showgrid="false"
     inkscape:window-width="1920"
     inkscape:window-height="1017"
     inkscape:window-x="1912"
     inkscape:window-y="-8"
     inkscape:window-maximized="1" />
  <metadata
     id="metadata7">
    <rdf:RDF>
      <cc:Work
         rdf:about="">
        <dc:format>image/svg+xml</dc:format>
        <dc:type
           rdf:resource="http://purl.org/dc/dcmitype/StillImage" />
        <dc:title></dc:title>
      </cc:Work>
    </rdf:RDF>
  </metadata>
  <g
     inkscape:groupmode="layer"
     id="layer2"
     inkscape:label="Layer" />
  <g
     inkscape:label="Layer 1"
     inkscape:groupmode="layer"
     id="layer1"
     transform="translate(0,-830.36218)">
    <g
       transform="matrix(5.3601733,0,0,5.2401806,-594.19587,-1857.1867)"
       style="font-size:40px;font-style:normal;font-weight:normal;line-height:125%;letter-spacing:0px;word-spacing:0px;fill:url(#linearGradient3943);fill-opacity:1;stroke:none;font-family:Sans"
       id="flowRoot3036-1" />
    <g
       transform="matrix(3.8925067,0,0,3.5999614,-577.70655,-962.67967)"
       style="font-size:40px;font-style:normal;font-weight:normal;line-height:125%;letter-spacing:0px;word-spacing:0px;fill:url(#linearGradient3941);fill-opacity:1;stroke:none;font-family:Sans"
       id="flowRoot3044-9" />
    <g
       transform="scale(0.963397,1.0379937)"
       style="font-size:128.05632019px;font-style:normal;font-weight:normal;line-height:125%;letter-spacing:0px;word-spacing:0px;fill:url(#linearGradient3939);fill-opacity:1;stroke:none;font-family:Sans"
       id="text3052-2" />
    <g
       transform="scale(0.95023077,1.0523759)"
       style="font-size:136.99371338px;font-style:normal;font-weight:normal;line-height:125%;letter-spacing:0px;word-spacing:0px;fill:url(#linearGradient3937);fill-opacity:1;stroke:none;font-family:Sans"
       id="text3056-5" />
    <g
       transform="scale(0.92709546,1.0786376)"
       style="font-size:140.412323px;font-style:normal;font-weight:normal;line-height:125%;letter-spacing:0px;word-spacing:0px;fill:url(#linearGradient3935);fill-opacity:1;stroke:none;font-family:Sans"
       id="text3060-1" />
    <g
       transform="matrix(0.98160654,0,0,1.0553399,-160.0983,-63.874268)"
       style="font-size:198.70233153999999000px;font-style:normal;font-weight:normal;line-height:125%;letter-spacing:0px;word-spacing:0px;fill:url(#linearGradient4948);fill-opacity:1;stroke:url(#linearGradient3832-9);stroke-width:4.12652397000000000;stroke-miterlimit:4;stroke-opacity:1;stroke-dasharray:none;font-family:Sans"
       id="text3064-1-3">
      <path
         style="font-size:medium;font-style:normal;font-variant:normal;font-weight:normal;font-stretch:normal;text-indent:0;text-align:start;text-decoration:none;line-height:125%;letter-spacing:0;word-spacing:0;text-transform:none;direction:ltr;block-progression:tb;writing-mode:lr-tb;text-anchor:start;baseline-shift:baseline;color:#000000;fill:url(#linearGradient4948);fill-opacity:1.0;fill-rule:nonzero;stroke:none;stroke-width:4.12652397000000000;marker:none;visibility:visible;display:inline;overflow:visible;enable-background:accumulate;font-family:Vermin Vibes 1989;-inkscape-font-specification:Vermin Vibes 1989"
         d="m 263.48541,849.40742 0,2.0625 0,10.4375 -11.96875,0 -2.0625,0 0,2.0625 0,47.90625 -52.09374,0 0,-35.40625 0,-2.0625 -2.0625,0 -28.09375,0 -2.0625,0 0,2.0625 0,124.93738 0,2.0625 2.0625,0 14.0625,0 2.0625,0 0,-2.0625 0,-10.43745 11.96875,0 2.0625,0 0,-2.0625 0,-47.9062 52.09374,0 0,35.4062 0,2.0625 2.0625,0 28.09375,0 2.0625,0 0,-2.0625 0,-124.93743 0,-2.0625 -2.0625,0 -14.0625,0 z m 22.3125,47.09375 0,2.0625 0,25.75 0,2.0625 2.0625,0 8.125,0 0,6.53125 0,2.0625 2.09375,0 8.125,0 0,6.53123 0,2.0625 2.0625,0 8.125,0 0,32.25 0,2.0625 2.0625,0 20.40625,0 2.0625,0 0,-2.0625 0,-32.25 8.15625,0 2.0625,0 0,-2.0625 0,-6.53123 8.125,0 2.0625,0 0,-2.0625 0,-6.53125 8.15625,0 2.0625,0 0,-2.0625 0,-6.5 8.125,0 2.0625,0 0,-2.0625 0,-8.59375 0,-2.0625 -2.0625,0 -30.59375,0 -2.0625,0 0,2.0625 0,6.53125 -8.15625,0 -2.0625,0 0,2.0625 0,6.5 -16.25,0 0,-6.5 0,-2.0625 -2.09375,0 -8.125,0 0,-6.53125 0,-2.0625 -2.0625,0 -8.125,0 0,-6.53125 0,-2.0625 -2.0625,0 -10.21875,0 z m 257.90625,5.75 0,2.0625 0,72.24998 0,2.0625 2.0625,0 17.0625,0 2.0625,0 0,-2.0625 0,-72.24998 0,-2.0625 -2.0625,0 -17.0625,0 z m 27.09375,0.1875 0,2.0625 0,149.03113 0,2.0625 2.0625,0 12.40625,0 2.0625,0 0,-2.0625 0,-10.3438 10.375,0 2.0625,0 0,-2.0624 0,-10.375 10.34375,0 2.0625,0 0,-2.0626 0,-10.3437 10.375,0 2.0625,0 0,-2.0625 0,-10.375 10.34375,0 2.0625,0 0,-2.0625 0,-10.34365 10.34375,0 2.09375,0 0,-2.0625 0,-10.3438 10.34375,0 2.0625,0 0,-2.0625 0,-10.3749 10.34375,0 2.0625,0 0,-2.0625 0,-62.09378 0,-2.0625 -2.0625,0 -99.34375,0 z m -105.96875,0.1875 0,2.0625 0,17.1875 0,2.0625 2.0625,0 49.125,0 0,4.46875 -49.125,0 -2.0625,0 0,2.0625 0,42.96873 0,2.0625 2.0625,0 17.0625,0 2.0625,0 0,-2.0625 0,-23.7187 4.40625,0 0,6.5312 0,2.0625 2.0625,0 6.46875,0 0,6.5313 0,2.0625 2.0625,0 6.46875,0 0,6.5312 0,2.0625 2.0625,0 6.46875,0 0,6.5312 0,2.0625 2.0625,0 6.46875,0 0,6.5313 0,2.0625 2.0625,0 8.53125,0 2.0625,0 0,-2.0625 0,-25.7812 0,-2.0625 -2.0625,0 -6.46875,0 0,-6.5313 0,-2.0625 -2.0625,0 -6.46875,0 0,-4.4687 15,0 2.0625,0 0,-2.0625 0,-42.96878 0,-2.0625 -2.0625,0 -68.25,0 z m -79.5,2.5625 0,2.0625 0,95.09363 0,2.0625 2.0625,0 8.09375,0 2.0625,0 0,-2.0625 0,-5.87495 6.03125,0 2.0625,0 0,-2.0625 0,-5.8437 6.03125,0 2.0625,0 0,-2.0625 0,-5.875 6,0 2.0625,0 0,-2.0625 0,-5.875 6.03125,0 2.0625,0 0,-2.0625 0,-5.8437 6.03125,0 2.0625,0 0,-2.0625 0,-5.875 6,0 2.0625,0 0,-2.0625 0,-5.8438 6.03125,0 2.0625,0 0,-2.0625 0,-5.875 6.03125,0 2.0625,0 0,-2.0625 0,-7.90623 0,-2.0625 -2.0625,0 -22.1875,0 0,-3.8125 6,0 2.0625,0 0,-2.0625 0,-5.84375 6.03125,0 2.0625,0 0,-2.0625 0,-7.9375 0,-2.0625 -2.0625,0 -64.6875,0 z m 20.3125,19.96875 3.96875,0 0,3.8125 -3.96875,0 z m 194.125,6.25 45.53125,0 0,20.71873 -10.34375,0 -2.0625,0 0,2.0625 0,10.3438 -10.34375,0 -2.0625,0 0,2.0625 0,10.3749 -10.375,0 -2.0625,0 0,2.0625 0,10.3438 -8.28125,0 z m -194.125,17.53123 12.03125,0 0,3.7813 -6,0 -2.0625,0 0,2.0625 0,5.875 -3.96875,0 z"
         id="path3961-5"
         inkscape:connector-curvature="0"
         sodipodi:nodetypes="ccccccccccccccccccccccccccccccccccccccccccccccccccccccccccccccccccccccccccccccccccccccccccccccccccccccccccccccccccccccccccccccccccccccccccccccccccccccccccccccccccccccccccccccccccccccccccccccccccccccccccccccccccccccccccccccccccccccccccccccccccccccccccccccccccccccccccccccccccccccccccccccccccccccccc" />
    </g>
    <g
       transform="matrix(0.98160654,0,0,1.0553399,-7.1106145,-9.8514478)"
       style="font-size:198.70233153999999000px;font-style:normal;font-weight:normal;line-height:125%;letter-spacing:0px;word-spacing:0px;fill:url(#linearGradient3982);fill-opacity:1;stroke:#000000;stroke-width:0.98250575;stroke-miterlimit:4;stroke-opacity:1;stroke-dasharray:none;font-family:Sans"
       id="text3064-1">
      <path
         id="path3961"
         style="fill:url(#radialGradient3978);fill-opacity:1;stroke:#000000;stroke-width:0.98250575;stroke-miterlimit:4;stroke-opacity:1;stroke-dasharray:none;font-family:Vermin Vibes 1989;-inkscape-font-specification:Vermin Vibes 1989"
         d="m 454.09204,940.07109 0,-12.41889 12.4189,0 0,-12.4189 12.4189,0 0,-12.41889 12.41889,0 0,-24.83779 -49.67558,0 0,62.09447 z m -37.25668,62.09451 0,-149.02678 99.35116,0 0,62.09448 -12.41889,0 0,12.4189 -12.4189,0 0,12.41889 -12.41889,0 0,12.4189 -12.4189,0 0,12.4189 -12.4189,0 0,12.41889 -12.41889,0 0,12.4189 -12.4189,0 0,12.41892 z m -27.09586,-76.98007 0,-72.22771 17.0603,0 0,72.22771 z m -19.16806,14.0782 0,-8.59419 -8.53015,0 0,-8.59418 -8.53015,0 0,-8.59418 -8.53016,0 0,-8.59418 -8.53015,0 0,-8.59419 -8.53015,0 0,25.78255 -17.0603,0 0,-42.97091 51.18091,0 0,-8.59418 -51.18091,0 0,-17.18836 68.24121,0 0,42.9709 -17.0603,0 0,8.59419 8.53015,0 0,8.59418 8.53015,0 0,25.78255 z m -114.93976,-27.9155 0,-7.92371 8.08413,0 0,-7.92372 -16.16826,0 0,15.84743 z m 0,-31.69485 0,-7.92372 -8.08413,0 0,7.92372 z m -24.25239,71.31342 0,-95.08456 64.67305,0 0,7.92371 -8.08413,0 0,7.92371 -8.08413,0 0,7.92372 24.25239,0 0,7.92371 -8.08413,0 0,7.92371 -8.08413,0 0,7.92372 -8.08413,0 0,7.92371 -8.08413,0 0,7.92372 -8.08414,0 0,7.92371 -8.08413,0 0,7.92371 -8.08413,0 0,7.92372 -8.08413,0 0,7.92371 z m -68.93671,-26.50905 0,-34.3361 -10.20273,0 0,-8.58402 -10.20273,0 0,-8.58402 -10.20273,0 0,-25.75207 10.20273,0 0,8.58402 10.20273,0 0,8.58402 10.20273,0 0,8.58403 20.40546,0 0,-8.58403 10.20273,0 0,-8.58402 30.60818,0 0,8.58402 -10.20273,0 0,8.58403 -10.20273,0 0,8.58402 -10.20272,0 0,8.58402 -10.20273,0 0,34.3361 z m -151.259637,25.58276 0,-124.95087 28.099321,0 0,37.48526 56.198641,0 0,-49.98034 14.049665,0 0,-12.49509 14.04966,0 0,124.95087 -28.099325,0 0,-37.48526 -56.198641,0 0,49.98035 -14.04966,0 0,12.49508 z"
         inkscape:connector-curvature="0" />
    </g>
  </g>
</svg>
